<svg xmlns="http://www.w3.org/2000/svg" fill="none" viewBox="0 0 24 24" height="24" width="24"><path stroke="#ffffff" stroke-linecap="round" stroke-linejoin="round" d="M8.25 9.74202c-0.00104 -0.70758 0.19803 -1.40103 0.57422 -2.00031 0.37619 -0.59929 0.91417 -1.07999 1.55188 -1.38662 0.6377 -0.30662 1.3491 -0.42668 2.0521 -0.34631 0.703 0.08037 1.3689 0.35789 1.9209 0.80053 0.5521 0.44264 0.9677 1.03236 1.1989 1.70109 0.2312 0.66873 0.2687 1.38921 0.1079 2.0783 -0.1607 0.6891 -0.513 1.3187 -1.0162 1.8161 -0.5032 0.4975 -1.1368 0.8425 -1.8277 0.9952 -0.2266 0.0447 -0.431 0.166 -0.5789 0.3435 -0.1478 0.1776 -0.2301 0.4005 -0.2331 0.6315v1.113" stroke-width="1"></path><path stroke="#ffffff" stroke-linecap="round" stroke-linejoin="round" d="M12 23.501c6.3513 0 11.5 -5.1487 11.5 -11.5S18.3513 0.500977 12 0.500977C5.64873 0.500977 0.5 5.6497 0.5 12.001s5.14873 11.5 11.5 11.5Z" stroke-width="1"></path><path stroke="#ffffff" d="M12.002 18.4919c-0.1381 0 -0.25 -0.1119 -0.25 -0.25 0 -0.138 0.1119 -0.25 0.25 -0.25" stroke-width="1"></path><path stroke="#ffffff" d="M12.002 18.4919c0.1381 0 0.25 -0.1119 0.25 -0.25 0 -0.138 -0.1119 -0.25 -0.25 -0.25" stroke-width="1"></path></svg>