<svg viewBox="0 0 24 24" xmlns="http://www.w3.org/2000/svg" height="24" width="24"><path d="M23.5 11.941a11.538 11.538 0 0 1 -11.532 11.544A11.662 11.662 0 0 1 0.5 11.734 11.246 11.246 0 0 1 11.505 0.5c0.166 -0.007 0.332 -0.01 0.5 -0.01A11.433 11.433 0 0 1 23.5 11.941Z" fill="none" stroke="#ffffff" stroke-linecap="round" stroke-linejoin="round" stroke-width="1"></path><path d="M11.505 0.5c-6 6.5 -6 14.98 0 22.98" fill="none" stroke="#ffffff" stroke-linecap="round" stroke-linejoin="round" stroke-width="1"></path><path d="M12.505 0.5c6 6.5 6 14.977 0 22.977" fill="none" stroke="#ffffff" stroke-linecap="round" stroke-linejoin="round" stroke-width="1"></path><path d="m2.386 5.484 19.134 0" fill="none" stroke="#ffffff" stroke-linecap="round" stroke-linejoin="round" stroke-width="1"></path><path d="m0.503 11.484 22.997 0" fill="none" stroke="#ffffff" stroke-linecap="round" stroke-linejoin="round" stroke-width="1"></path><path d="m1.985 17.484 20.1 0" fill="none" stroke="#ffffff" stroke-linecap="round" stroke-linejoin="round" stroke-width="1"></path></svg>