<svg width="2733" height="856" viewBox="0 0 2733 856" fill="none" xmlns="http://www.w3.org/2000/svg">
<g clip-path="url(#clip0_113_42)">
<path d="M2459.37 855.462C2456.67 854.808 2454.49 853.789 2452.22 853.557C2424.56 850.717 2402.02 838.744 2386.05 815.753C2362.47 781.791 2370.64 731.584 2403.33 706.242C2422.66 691.259 2444.84 683.373 2468.65 679.777C2499.76 675.077 2531.14 676.932 2562.43 676.64C2569.14 676.577 2569.28 676.633 2569.12 669.847C2568.8 656.373 2569.42 642.754 2567.64 629.464C2564.83 608.509 2554.27 592.223 2534.29 583.135C2511.81 572.904 2488.4 572.577 2464.97 577.987C2446.25 582.308 2430.39 592.225 2420.33 609.093C2416.73 615.14 2415.27 622.609 2413.61 629.613C2412.77 633.167 2411.93 634.733 2407.98 634.548C2400.17 634.181 2392.33 634.22 2384.5 634.354C2380.7 634.42 2379.61 632.96 2379.91 629.275C2381.61 608.176 2391.47 591.35 2407.05 577.658C2432.3 555.459 2462.34 546.812 2495.42 547.076C2513.2 547.218 2530.68 549.306 2547.11 556.475C2576.91 569.482 2595.41 591.615 2599.95 624.283C2601.21 633.313 2601.72 642.511 2601.76 651.636C2601.98 698.951 2601.75 746.268 2602.09 793.582C2602.21 810.232 2604.07 826.763 2609.73 842.661C2611.96 848.912 2611.36 849.45 2604.82 849.449C2596.32 849.447 2587.82 849.33 2579.33 849.515C2576.5 849.577 2575.06 848.882 2574.62 845.909C2573.16 836.226 2571.46 826.578 2569.96 816.901C2569.61 814.66 2569.64 812.359 2569.5 810.086C2568.86 809.616 2568.22 809.145 2567.58 808.675C2566.58 810.283 2565.78 812.056 2564.56 813.474C2548.77 831.837 2528.81 843.516 2505.52 849.529C2497.18 851.684 2488.61 852.99 2480.02 855.073C2473.21 855.462 2466.52 855.462 2459.37 855.462ZM2507.42 820.599C2528.76 813.97 2546.32 801.861 2559.18 783.603C2563.38 777.647 2568.23 770.655 2568.7 763.857C2570 744.957 2569.07 725.909 2569.22 706.921C2569.25 703.202 2568.03 702.002 2564.34 702.056C2542.69 702.375 2521.03 702.103 2499.4 702.809C2477.46 703.526 2456.09 707.352 2436.63 718.371C2416.51 729.762 2404.65 746.224 2405.94 770.184C2407.21 793.702 2419.19 810.527 2440.59 819.443C2462.12 828.409 2484.5 826.903 2507.42 820.599Z" fill="white"/>
<path d="M1025.9 449.931C1066.88 449.46 1107.86 449.36 1148.84 449.493C1173.16 449.572 1197.02 452.416 1219.35 463.005C1246.14 475.705 1265.04 495.792 1273.64 524.227C1282.95 555.029 1282.61 586.042 1270.7 616.276C1261.69 639.165 1244.97 655.207 1223.21 666.017C1200.3 677.396 1175.59 680.37 1150.4 680.443C1115.75 680.543 1081.1 680.468 1046.45 680.468C1044.66 680.468 1042.88 680.468 1040.82 680.468C1040.82 736.865 1040.82 792.786 1040.82 849.468C1035.99 849.468 1031.41 849.468 1026.36 849.465C1025.9 716.441 1025.9 583.42 1025.9 449.931ZM1040.74 565.962C1040.74 599.063 1040.74 632.165 1040.74 665.62C1042.06 665.62 1042.86 665.62 1043.66 665.62C1079.32 665.618 1114.98 665.656 1150.64 665.599C1170.77 665.567 1190.52 663.027 1209.27 655.275C1230.61 646.457 1246.57 631.801 1256.29 610.704C1265.37 590.99 1266.37 570.21 1263.79 549.082C1260.15 519.299 1245.77 496.208 1219.95 480.676C1201.18 469.385 1180.27 465.135 1158.77 464.806C1119.95 464.212 1081.12 464.545 1042.29 464.512C1041.85 464.512 1041.4 464.796 1040.74 465.018C1040.74 498.35 1040.74 531.656 1040.74 565.962Z" fill="white"/>
<path d="M2725.43 427.462C2725.96 428.958 2726.08 430.453 2726.08 431.949C2726.09 569.593 2726.09 707.236 2726.09 844.88C2726.09 846.201 2726.09 847.523 2726.09 849.155C2715.18 849.155 2704.44 849.155 2693.09 849.155C2693.09 708.882 2693.09 568.632 2693 427.922C2703.58 427.462 2714.27 427.462 2725.43 427.462Z" fill="white"/>
<path d="M2319.24 535.142C2326.06 569.798 2325.12 603.151 2306.65 634.093C2296.28 651.461 2281.26 663.855 2263.01 672.335C2238.45 683.743 2212.26 686.563 2185.6 686.613C2154.45 686.672 2123.3 686.627 2092.14 686.627C2090.33 686.627 2088.51 686.627 2086.22 686.627C2086.22 740.869 2086.22 794.908 2086.22 849.204C2074.83 849.204 2063.89 849.204 2052.67 849.204C2052.67 716.179 2052.67 583.137 2052.67 449.707C2053.94 449.625 2055.2 449.472 2056.46 449.471C2100.11 449.459 2143.76 449.311 2187.4 449.519C2212.22 449.638 2236.57 452.811 2259.36 463.534C2290.21 478.058 2310.55 501.481 2319.24 535.142ZM2136.4 657.971C2152.72 657.971 2169.05 658.001 2185.37 657.962C2200.56 657.926 2215.64 656.997 2230.31 652.584C2252.89 645.793 2270.45 632.921 2280.73 611.172C2290.29 590.949 2290.98 569.718 2287.3 548.195C2283.08 523.497 2270.08 504.567 2248.3 491.95C2232.37 482.716 2214.86 478.77 2196.68 478.567C2160.54 478.164 2124.39 478.356 2088.24 478.318C2087.62 478.318 2087.01 478.519 2086.3 478.644C2086.3 538.431 2086.3 597.984 2086.3 657.971C2102.82 657.971 2119.11 657.971 2136.4 657.971Z" fill="white"/>
<path d="M1835.39 655.809C1827.33 628.738 1819.41 602.039 1811.88 576.673C1783.01 666.693 1753.75 757.938 1724.46 849.274C1719.37 849.274 1714.58 849.274 1709.37 849.274C1680.73 750.54 1652.06 651.758 1623.29 552.585C1629.11 552.585 1634.51 552.585 1640.67 552.585C1666.44 643.609 1692.25 734.774 1717.85 825.185C1746.34 735.074 1775.18 643.853 1804.06 552.49C1809 552.49 1813.8 552.49 1819.24 552.49C1847.9 643.412 1876.64 734.605 1905.44 825.964C1931.23 734.565 1956.92 643.517 1982.61 552.485C1988.63 552.485 1994.08 552.485 2000.11 552.485C1971.27 651.571 1942.54 750.323 1913.76 849.24C1908.81 849.24 1904.04 849.24 1898.79 849.24C1877.74 785.016 1856.63 720.599 1835.39 655.809Z" fill="white"/>
<path d="M1544.32 847.096C1542.18 830.11 1540.19 813.52 1538.27 797.476C1534.34 802.396 1530.19 808.203 1525.42 813.44C1508.94 831.534 1488.39 842.973 1464.95 849.412C1438.67 856.629 1412.13 857.355 1386.17 849.119C1350.67 837.85 1329.28 809.337 1331.11 770.58C1332.67 737.286 1351.95 716.303 1379.88 701.74C1403.83 689.25 1429.85 684.648 1456.49 683.92C1482.3 683.214 1508.15 683.561 1533.98 683.699C1538.41 683.722 1539.82 682.3 1539.66 678C1539.01 660.039 1539.8 641.927 1537.74 624.137C1534.66 597.386 1519.3 578.743 1494.06 569.528C1461 557.455 1427.78 558.938 1395.94 573.625C1376.69 582.505 1361.71 596.643 1355.93 618.234C1354.86 622.228 1354.26 626.393 1353.89 630.519C1353.65 633.356 1352.54 634.299 1349.83 634.127C1336.91 633.308 1338.48 634.971 1339.86 623.438C1342.55 600.991 1354.92 584.385 1372.38 571.126C1400.36 549.887 1432.35 544.518 1466.43 547.962C1486.65 550.006 1505.42 556.13 1521.88 568.38C1536.91 579.56 1546.63 594.512 1550.63 612.611C1552.99 623.249 1554.17 634.344 1554.28 645.248C1554.76 697.572 1554.63 749.902 1554.88 802.23C1554.95 816.934 1556.77 831.448 1561.31 845.525C1561.61 846.434 1561.68 847.414 1562.03 849.258C1555.86 848.509 1549.96 851.837 1544.32 847.096ZM1486.33 825.471C1505.42 816.186 1520.16 802.032 1531.24 784.172C1534.91 778.248 1538.89 771.367 1539.23 764.743C1540.27 744.473 1539.54 724.114 1539.67 703.791C1539.69 699.827 1538.68 698.252 1534.31 698.302C1513.82 698.535 1493.33 698.269 1472.84 698.455C1454.87 698.618 1436.88 698.918 1419.28 703.344C1403.39 707.341 1388.15 712.871 1374.66 722.463C1358.71 733.801 1347.89 748.677 1346.08 768.44C1343.07 801.369 1365.03 828.165 1394.53 836.056C1425.7 844.396 1456.55 840.476 1486.33 825.471Z" fill="white"/>
<path d="M199.21 559.508C247.208 494.203 305.245 440.719 375.561 400.979C408.103 382.587 442.684 370.199 480.381 368.606C510.33 367.34 538.447 375.386 565.7 387.086C612.311 407.098 652.923 436.076 690.088 470.203C734.101 510.619 772.605 555.609 802.779 607.361C822.418 641.045 839.453 675.908 846.477 714.728C849.989 734.136 851.63 753.65 847.406 773.258C840.906 803.435 823.878 825.686 795.755 837.987C766.391 850.832 735.065 856.851 703.069 855.556C677.399 854.517 652.314 848.487 627.66 840.902C599.202 832.148 570.562 823.982 541.974 815.654C504.086 804.616 466.346 804.882 428.497 816.415C394.652 826.727 360.715 836.799 326.55 845.976C301.306 852.757 275.379 857.693 249.177 855.972C215.36 853.752 182.096 848.096 154.599 825.604C134.774 809.387 123.163 788.507 120.934 762.899C117.217 720.186 130.009 681.034 147.809 643.132C161.729 613.493 179.845 586.375 199.21 559.508ZM462.984 722.23C471.82 730.651 480.655 739.072 489.349 747.358C490.402 746.672 490.812 746.491 491.113 746.197C533.26 704.958 575.658 663.969 617.416 622.339C634.573 605.235 643.166 584.201 642.687 559.302C641.601 502.792 583.415 460.136 525.464 481.859C511.062 487.258 499.162 496.336 488.632 509.399C487.782 507.872 487.414 506.79 486.712 506.007C459.092 475.22 415.85 466.302 379.434 485.664C351.413 500.563 334.474 524.303 332.346 556.811C330.539 584.425 342.312 606.502 361.805 625.159C395.349 657.267 428.806 689.465 462.984 722.23Z" fill="white" stroke="white"/>
<path d="M306.256 298.633C279.633 284.895 258.641 265.523 243.452 240.444C217.565 197.702 206.293 151.247 213.288 101.506C217.711 70.0506 229.346 41.3748 255.226 20.7071C270.409 8.58146 288.218 1.65301 307.392 2.54041C323.014 3.26344 338.196 8.68104 352.239 16.3077C380.759 31.7964 398.989 56.741 414.474 84.1247C431.296 113.872 439.812 146.044 439.405 180.112C439.096 205.903 434.899 231.277 423.986 255.036C403.871 298.827 352.72 321.673 306.256 298.633Z" fill="white" stroke="white"/>
<path d="M739.946 214.414C725.214 248.21 703.761 275.571 671.926 294.193C625.674 321.249 573.292 306.167 548.454 258.656C531.4 226.034 527.257 191.355 532.442 155.497C537.644 119.525 549.823 86.0613 572.414 57.0589C593.459 30.0411 619.059 9.38488 653.897 3.82362C681.234 -0.540303 704.519 9.51365 723.682 28.4712C743.345 47.9227 751.585 73.2318 756.436 99.6792C763.744 139.519 755.592 177.294 739.946 214.414Z" fill="white" stroke="white"/>
<path d="M177.553 292.475C200.13 320.898 211.839 352.881 211.206 388.675C210.633 421.113 199.825 449.778 174.087 470.953C144.445 495.339 104.02 496.772 68.7195 475.617C30.3127 452.601 9.20317 417.932 0.361805 374.842C-6.8297 339.793 0.559565 307.722 21.7701 279.474C45.3263 248.101 89.7788 238.092 127.1 254.186C146.918 262.732 163.422 275.662 177.553 292.475Z" fill="white" stroke="white"/>
<path d="M890.01 481.359C856.542 495.423 824.973 493.587 796.081 471.479C774.925 455.29 764.441 432.636 760.716 406.694C755.795 372.43 760.702 339.928 779.768 310.488C794.658 287.496 813.33 268.531 838.598 256.541C892.399 231.014 950.607 257.566 966.484 315.216C984.494 380.609 952.425 450.612 890.01 481.359Z" fill="white" stroke="white"/>
<path d="M462.642 722.377C428.806 689.914 395.349 657.716 361.805 625.608C342.313 606.951 330.539 584.874 332.347 557.26C334.474 524.752 351.413 501.012 379.434 486.113C415.85 466.751 459.092 475.669 486.712 506.456C487.414 507.239 487.782 508.321 488.632 509.848C499.162 496.785 511.062 487.707 525.464 482.308C583.415 460.585 641.601 503.241 642.687 559.751C643.166 584.65 634.573 605.684 617.416 622.788C575.658 664.418 533.26 705.407 491.113 746.646C490.812 746.94 490.402 747.121 489.349 747.807C480.655 739.521 471.82 731.1 462.642 722.377Z" stroke="white"/>
</g>
<defs>
<clipPath id="clip0_113_42">
<rect width="2733" height="856" fill="white"/>
</clipPath>
</defs>
</svg>