<svg width="800" height="800" viewBox="0 0 800 800" fill="none" xmlns="http://www.w3.org/2000/svg">
<g clip-path="url(#clip0_16_285)">
<path d="M359.616 60.8C350.592 65.664 347.968 80.32 354.688 88C361.024 95.168 370.496 96.064 376.576 90.048C379.584 86.976 380.8 83.712 380.8 78.592C380.8 71.552 377.6 65.088 372.416 61.632C368.896 59.328 363.008 58.88 359.616 60.8ZM369.792 66.304C376.128 71.168 377.28 84.288 371.648 87.68C367.68 90.112 361.344 88.576 358.272 84.48C355.456 80.64 356.288 71.424 359.872 67.392C363.2 63.616 365.824 63.296 369.792 66.304Z" fill="white"/>
<path d="M453.888 64.064C444.864 68.544 441.664 85.248 448.704 91.136C452.16 94.08 456.512 94.592 461.76 92.672C469.44 89.856 472.704 81.728 469.824 72.512C468.352 67.712 467.136 66.048 463.936 64.064C461.12 62.336 457.408 62.336 453.888 64.064Z" fill="white"/>
<path d="M328.448 65.3442C323.072 68.0322 320 73.7282 320 80.8962C320 88.1282 322.624 93.8242 327.296 96.9602C329.664 98.4322 330.432 98.6242 334.464 98.4322C340.096 98.1762 344.128 95.9362 347.264 91.3282C351.104 85.7602 350.72 78.7202 346.24 71.8082C341.888 65.0242 334.4 62.2722 328.448 65.3442ZM338.816 71.6802C346.304 78.5922 345.984 89.0242 338.24 92.8002C335.104 94.3362 333.376 94.4002 330.944 93.1842C328.512 91.9042 327.232 89.7282 326.016 85.1202C324.864 80.6402 325.504 76.1602 327.744 72.5122C329.408 69.8242 330.56 69.1842 333.632 69.1202C335.552 69.1202 336.576 69.6322 338.816 71.6802Z" fill="white"/>
<path d="M489.28 70.848C486.464 71.36 481.728 75.84 479.424 80C475.712 86.784 476.416 92.928 481.536 97.984C482.624 99.072 484.416 100.416 485.568 100.864C488.256 102.016 493.056 102.016 495.232 100.864C501.056 97.792 504.704 88.768 503.104 81.344C501.44 73.6 496.064 69.504 489.28 70.848Z" fill="white"/>
<path d="M384.832 85.504C383.68 86.08 381.44 87.936 379.84 89.664C373.568 96.384 371.584 105.152 375.168 110.528C377.344 113.856 382.4 116.48 386.56 116.48C393.536 116.48 398.016 111.552 399.424 102.336C400.64 94.528 399.232 89.536 394.752 86.208C392.448 84.48 387.456 84.16 384.832 85.504ZM392.576 91.072C395.456 93.952 395.52 102.016 392.704 107.52C390.08 112.768 384.32 113.152 380.16 108.416C377.664 105.536 377.664 103.104 380.16 98.048C383.872 90.688 389.184 87.68 392.576 91.072Z" fill="white"/>
<path d="M427.136 86.9761C426.048 87.6161 424.448 89.2801 423.616 90.6241C422.208 92.8641 422.08 93.8241 422.08 100.16C422.08 108.224 423.104 111.296 426.496 113.344C430.72 115.904 438.976 114.304 441.92 110.272C443.648 107.904 443.968 102.144 442.624 98.0481C440.512 91.6481 434.752 85.7601 430.72 85.7601C429.824 85.7601 428.224 86.3361 427.136 86.9761Z" fill="white"/>
<path d="M309.376 97.5361C307.328 99.7121 306.56 101.12 306.24 103.296C305.088 110.656 310.208 121.408 316.352 124.608C319.36 126.144 325.056 125.504 328.32 123.2C336 117.888 336.128 108.288 328.768 100.864C324.672 96.7681 320.32 94.7201 315.776 94.7201C312.256 94.7201 312 94.8481 309.376 97.5361ZM319.808 100.544C323.264 102.208 328.064 107.52 329.024 110.72C329.984 113.856 329.024 116.544 326.144 118.72C322.24 121.728 318.336 121.408 315.712 117.888C310.848 111.36 309.952 102.848 313.792 100.16C315.584 98.8801 316.48 98.9441 319.808 100.544Z" fill="white"/>
<path d="M350.72 97.2162C345.472 98.8162 342.72 101.888 340.8 108.224C338.56 115.456 337.664 117.376 334.08 122.112C328.64 129.408 328.064 130.816 328.064 136C328.064 141.248 329.472 144.576 333.12 147.712C338.496 152.448 343.744 152.896 352.32 149.248L358.08 146.88H367.744C377.344 146.88 377.408 146.88 380.48 144.96C384.64 142.4 387.328 138.112 387.712 133.44C388.352 125.696 385.984 121.536 377.728 116.032C373.632 113.28 371.52 111.296 369.28 108.224C361.984 97.8562 357.44 95.1682 350.72 97.2162ZM358.464 103.232C359.616 104 361.728 106.24 363.008 108.16C367.36 114.496 368.448 115.584 374.272 119.552C380.928 124.096 382.784 126.336 383.168 130.24C383.616 133.824 382.528 136.896 379.968 139.328C377.152 142.08 374.272 142.72 368.192 142.016C361.536 141.248 357.952 141.76 350.592 144.704C343.616 147.52 342.08 147.712 338.56 145.92C335.68 144.448 333.888 142.144 332.8 138.432C331.712 134.912 332.992 131.456 337.344 126.016C341.824 120.384 342.72 118.784 344.96 111.872C346.56 106.944 347.392 105.28 349.184 103.744C351.936 101.248 355.264 101.12 358.464 103.232Z" fill="white"/>
<path d="M232.576 102.016C230.464 104.192 229.696 105.664 229.12 108.352C227.584 115.776 231.36 124.288 237.632 127.424C239.68 128.512 241.088 128.704 244.864 128.512C248.896 128.32 249.856 128.064 251.968 126.336C255.488 123.52 256.768 120.704 256.448 116.736C255.552 107.328 247.488 99.2001 238.976 99.2001C235.456 99.2001 235.2 99.3281 232.576 102.016Z" fill="white"/>
<path d="M462.4 103.36C459.904 104.256 457.024 106.944 451.328 113.792C449.664 115.84 446.848 118.144 443.968 119.744C434.24 125.376 431.36 128.96 431.36 135.68C431.36 140.032 432.96 143.68 436.032 146.368C439.104 149.056 442.688 149.952 448.96 149.632C455.616 149.248 460.032 150.272 467.008 153.984C472.192 156.736 472.896 156.928 476.032 156.608C482.432 155.968 487.552 151.424 488.896 145.28C489.92 140.736 488.768 137.216 483.84 129.92C480.32 124.672 479.68 123.136 478.144 116.544C477.376 113.216 476.16 109.44 475.456 108.16C473.024 103.872 467.072 101.696 462.4 103.36Z" fill="white"/>
<path d="M502.08 106.112C495.936 108.736 491.904 112.128 489.92 116.288C486.528 123.392 493.12 132.544 500.928 131.648C505.856 131.136 511.04 125.568 513.536 118.208C514.816 114.496 514.816 112.576 513.664 109.824C511.744 105.216 507.392 103.872 502.08 106.112Z" fill="white"/>
<path d="M574.272 113.92C562.88 119.68 558.976 133.888 566.848 140.864C570.176 143.744 572.8 144.64 577.728 144.64C584.96 144.576 589.696 141.44 592.832 134.464C594.752 130.304 594.752 122.304 592.896 118.72C590.848 114.752 587.072 112.448 582.208 112.128C578.752 111.936 577.728 112.192 574.272 113.92ZM585.536 118.08C587.136 118.912 587.84 120 589.056 123.776C590.336 127.552 586.176 136.576 582.272 138.624C579.456 140.096 574.208 140.032 571.648 138.496C569.472 137.216 567.68 134.144 567.68 131.712C567.68 129.152 570.56 123.968 573.376 121.408C577.984 117.248 581.952 116.16 585.536 118.08Z" fill="white"/>
<path d="M266.816 116.416C265.472 117.888 263.936 120.448 263.296 122.368C261.824 126.72 261.824 133.952 263.232 136.704C265.664 141.44 270.912 143.552 276.48 142.08C284.288 139.968 286.08 131.2 280.896 120.512C278.656 115.84 276.096 113.92 272 113.92C269.632 113.92 268.928 114.24 266.816 116.416Z" fill="white"/>
<path d="M207.168 117.376C202.304 119.168 200.192 122.752 200.192 129.024C200.192 137.984 207.808 147.264 215.168 147.2C220.16 147.136 224.832 143.36 226.88 137.664C228.16 134.016 228.096 131.456 226.624 128.256C222.976 120.256 213.568 115.008 207.168 117.376Z" fill="white"/>
<path d="M547.392 122.24C542.72 123.328 537.856 128.96 536 135.296C533.888 142.336 535.424 148.608 539.968 151.68C542.016 153.088 542.976 153.28 547.776 153.28C554.56 153.28 556.736 152 559.296 146.624C560.704 143.616 560.96 142.208 560.896 137.472C560.896 132.608 560.64 131.456 558.976 128.256C556.416 123.136 552.32 121.024 547.392 122.24ZM552.32 127.36C555.52 129.088 556.992 140.032 554.56 144.896C553.088 147.904 550.016 149.44 546.368 148.864C540.8 147.968 538.944 144.64 540.544 138.432C541.696 134.08 543.296 131.328 546.304 128.704C548.608 126.656 550.272 126.272 552.32 127.36Z" fill="white"/>
<path d="M599.936 132.736C587.712 138.432 584.576 151.104 593.152 159.936C597.696 164.672 602.624 165.632 608.32 162.944C613.888 160.384 619.072 153.216 619.904 146.944C620.416 143.232 619.136 137.984 617.152 135.616C613.248 131.008 606.144 129.856 599.936 132.736ZM612.544 138.176C614.144 139.84 614.4 140.544 614.4 143.808C614.4 152.64 606.656 160.768 599.936 159.104C597.248 158.4 594.752 155.264 593.856 151.424C593.152 148.288 593.216 147.712 594.496 145.024C596.928 140.032 602.624 136.384 607.872 136.32C610.112 136.32 611.008 136.704 612.544 138.176Z" fill="white"/>
<path d="M241.088 140.416C234.56 142.784 232.192 147.904 233.536 156.608C234.56 163.2 234.432 165.44 232.64 172.224C231.808 175.488 231.04 179.52 231.04 181.12C231.04 188.608 237.696 195.136 245.312 195.2C249.472 195.2 252.416 193.536 257.344 188.416C262.592 182.976 265.856 180.864 272.32 178.88C278.72 176.96 281.472 175.168 283.392 171.648C286.08 166.848 285.12 158.976 281.408 155.008C279.168 152.576 276.032 151.296 268.8 149.76C261.824 148.288 260.032 147.584 255.68 144.64C249.216 140.224 244.992 139.008 241.088 140.416Z" fill="white"/>
<path d="M568.896 149.696C567.936 150.016 564.736 151.552 561.792 153.216C556.928 155.84 555.648 156.224 549.184 157.056C539.392 158.336 534.656 161.28 532.032 167.488C530.816 170.496 531.008 177.088 532.416 180.16C533.888 183.36 537.984 187.136 541.184 188.16C548.352 190.464 552.576 193.536 558.336 200.64C561.536 204.48 564.864 206.016 570.112 206.08C574.784 206.08 577.408 205.12 580.736 202.24C585.728 197.824 586.752 193.408 584.96 182.912C583.872 176.192 583.872 175.104 584.704 171.136C585.216 168.704 585.6 164.864 585.6 162.624C585.6 157.44 583.616 153.728 579.648 151.424C576.704 149.696 571.52 148.864 568.896 149.696ZM576.576 155.136C580.48 157.184 581.44 160.64 580.16 167.488C578.944 173.888 578.944 177.856 580.224 184.064C581.504 190.144 581.184 194.368 579.264 197.056C576.256 201.28 569.472 202.88 565.312 200.384C564.224 199.68 561.856 197.376 560.064 195.2C555.584 189.824 553.856 188.48 548.032 185.92C540.032 182.336 538.624 181.44 537.152 178.816C534.208 173.696 536 166.912 541.12 164.032C542.528 163.264 545.28 162.432 547.2 162.24C554.88 161.472 558.656 160.384 564.736 157.376C571.392 154.048 573.632 153.664 576.576 155.136Z" fill="white"/>
<path d="M201.92 154.816C195.52 157.696 196.608 166.912 204.16 173.696C208 177.152 211.968 178.752 215.488 178.368C222.592 177.6 227.136 167.808 223.168 161.856C220.352 157.568 212.352 153.6 206.784 153.6C205.504 153.6 203.328 154.176 201.92 154.816Z" fill="white"/>
<path d="M597.44 167.552C586.624 171.264 583.616 181.504 590.848 189.696C596.096 195.712 603.968 194.752 612.352 187.136C614.208 185.536 616.32 183.04 616.96 181.696C619.648 176.448 617.728 170.112 612.8 167.68C609.408 166.016 601.984 165.952 597.44 167.552ZM609.408 171.52C615.296 173.184 614.08 179.904 606.912 185.088C601.024 189.376 597.696 189.76 594.624 186.624C592.896 184.832 592.384 183.744 592.128 181.12C591.872 178.304 592.064 177.6 593.344 176.192C595.2 174.144 599.488 172.224 603.456 171.52C605.056 171.264 606.528 171.008 606.72 170.944C606.912 170.944 608.128 171.2 609.408 171.52Z" fill="white"/>
<path d="M139.2 180.8C129.024 184.704 128.384 198.72 138.048 207.424C142.912 211.776 147.2 212.736 153.536 210.816C159.616 209.024 164.416 203.136 164.48 197.44C164.48 191.808 158.912 184.448 152.448 181.632C148.608 179.904 142.528 179.584 139.2 180.8ZM150.08 186.816C157.312 190.016 161.28 197.248 158.272 201.6C156.544 204.096 154.816 205.312 151.808 206.08C146.432 207.424 140.992 204.352 137.984 198.272C133.12 188.48 139.712 182.208 150.08 186.816Z" fill="white"/>
<path d="M170.816 183.296C167.168 185.792 166.208 188.544 166.528 195.456C166.848 202.176 168.384 206.144 172.032 209.664C175.168 212.672 178.368 213.568 182.912 212.608C192.128 210.688 196.032 202.496 191.744 193.984C189.568 189.76 184.832 184.64 181.632 182.976C178.176 181.248 173.696 181.376 170.816 183.296ZM179.712 187.776C183.616 189.824 188.8 197.312 188.8 200.96C188.8 204.544 184.448 208 179.968 208C175.808 208 172.48 203.456 171.264 196.032C170.688 192.896 171.776 188.48 173.312 187.584C174.912 186.624 177.728 186.752 179.712 187.776Z" fill="white"/>
<path d="M632 199.616C626.176 202.944 621.44 209.472 621.44 214.144C621.44 217.152 623.488 220.736 626.304 222.656C628.992 224.512 634.048 225.152 636.8 224C642.56 221.632 647.808 209.472 645.76 203.264C643.968 197.696 638.08 196.16 632 199.616Z" fill="white"/>
<path d="M664.896 201.216C661.568 202.368 656.96 205.888 654.976 208.768C649.28 216.896 655.808 227.392 666.56 227.52C669.632 227.52 670.976 227.136 673.344 225.792C683.904 219.584 686.464 206.528 678.016 201.792C675.136 200.128 668.736 199.808 664.896 201.216Z" fill="white"/>
<path d="M120.64 206.144C108.288 210.752 109.632 227.776 122.816 234.816C129.984 238.592 136.576 238.016 140.864 233.152C143.744 229.824 144.64 227.2 144.64 222.272C144.576 215.04 141.312 210.176 134.464 207.232C131.008 205.76 123.392 205.184 120.64 206.144ZM132.928 212.928C136.832 214.72 138.624 216.704 139.584 220.352C140.48 223.744 139.392 227.776 136.832 230.208C133.12 233.728 126.144 232 121.024 226.176C118.016 222.72 116.8 219.328 117.376 216.128C118.4 210.752 125.312 209.28 132.928 212.928Z" fill="white"/>
<path d="M182.144 215.04C176.256 216.192 175.424 216.192 171.264 215.36C160.64 213.12 155.008 214.592 151.424 220.352C149.888 222.848 149.504 224.128 149.504 227.392C149.44 230.976 149.76 231.936 152.832 237.504C155.904 243.136 156.224 244.224 157.056 250.816C158.336 260.544 161.28 265.344 167.488 267.968C170.496 269.184 177.088 268.992 180.16 267.584C183.36 266.112 187.136 262.016 188.16 258.816C190.464 251.648 193.536 247.424 200.64 241.664C204.48 238.464 206.016 235.136 206.08 229.888C206.08 225.216 205.12 222.592 202.24 219.264C197.824 214.208 192.32 213.056 182.144 215.04ZM167.488 219.84C173.888 221.056 178.176 221.056 183.808 219.776C189.504 218.496 194.368 218.816 197.056 220.736C201.408 223.872 202.944 230.784 200.128 234.944C199.36 236.096 196.864 238.528 194.624 240.32C189.888 244.16 187.712 247.232 184.96 253.888C182.272 260.416 181.376 261.568 178.496 263.104C171.072 266.88 163.2 261.888 162.24 252.8C161.408 244.992 160.448 241.408 157.376 235.264C155.648 231.744 154.24 228.096 154.24 227.072C154.24 222.976 157.248 219.776 162.048 218.944C162.24 218.944 164.736 219.328 167.488 219.84Z" fill="white"/>
<path d="M683.648 229.504C679.232 230.656 677.184 231.808 674.688 234.304C672 237.056 671.168 239.872 671.488 245.12C671.68 248.896 672 249.92 673.664 251.968C676.288 255.232 678.656 256.32 682.944 256.32C689.344 256.256 697.28 250.88 699.84 244.736C700.352 243.456 700.8 240.832 700.8 238.976C700.8 235.904 700.544 235.264 698.496 232.96C696.896 231.168 695.168 230.144 692.928 229.44C689.024 228.288 688.064 228.288 683.648 229.504Z" fill="white"/>
<path d="M613.44 232.256C608.256 234.624 604.8 239.936 604.8 245.44C604.8 249.792 606.08 252.16 611.136 257.024C616.96 262.528 618.944 265.792 621.12 272.832C622.528 277.568 623.296 278.976 625.536 281.28C630.336 286.08 637.952 286.464 643.84 282.176C647.104 279.808 648.448 276.928 650.304 268.48C651.712 261.76 652.8 259.2 656.448 253.696C659.456 249.152 660.672 244.992 659.84 241.856C658.944 238.528 656.32 235.584 652.928 234.048C650.304 232.896 649.6 232.896 643.712 233.6C636.544 234.496 632.64 234.176 626.56 232.32C621.376 230.72 616.768 230.72 613.44 232.256Z" fill="white"/>
<path d="M132.544 239.36C128.64 240.192 124.352 242.88 123.072 245.312C121.792 247.872 121.792 252.544 123.072 255.168C126.848 262.336 140.352 267.2 147.328 263.744C148.864 262.976 150.784 261.376 151.68 260.032C153.088 257.92 153.28 256.896 153.28 252.16C153.28 247.488 153.088 246.4 151.808 244.608C148.608 240.192 139.904 237.824 132.544 239.36ZM145.152 245.632C149.568 247.872 150.272 254.976 146.432 258.56C143.296 261.504 134.784 259.52 129.792 254.72C124.928 250.048 125.888 246.656 132.48 244.8C136.768 243.648 141.952 243.968 145.152 245.632Z" fill="white"/>
<path d="M662.656 263.616C656.768 266.304 655.424 276.48 660.288 281.088C662.784 283.456 666.432 284.288 670.848 283.52C677.056 282.56 680.896 280.832 683.584 277.952C685.76 275.584 686.08 274.816 686.08 272.256C686.08 269.568 685.824 268.992 683.52 266.816C681.92 265.28 679.68 264 677.632 263.36C673.024 262.016 665.92 262.144 662.656 263.616Z" fill="white"/>
<path d="M109.632 286.4C106.688 287.68 104.832 290.88 105.152 294.08C105.792 300.096 112 308.8 116.928 310.464C122.24 312.192 128 309.696 130.624 304.512C132.416 301.056 132.032 297.152 129.6 294.08C126.336 289.728 118.08 285.376 113.344 285.44C112.448 285.504 110.72 285.888 109.632 286.4Z" fill="white"/>
<path d="M79.2319 297.344C73.2159 299.2 69.3759 305.152 70.9119 310.272C72.0639 314.048 75.1359 317.824 78.8479 320C83.9039 322.88 86.6559 323.456 90.8799 322.56C93.8239 321.92 94.9759 321.216 97.6639 318.4C106.048 309.888 101.952 299.776 89.0879 297.024C84.7999 296.128 83.0079 296.192 79.2319 297.344Z" fill="white"/>
<path d="M690.88 306.368C684.544 307.712 678.336 311.488 676.096 315.328C672.768 320.896 675.008 328.64 681.152 332.672C684.352 334.784 689.728 334.848 693.696 332.8C697.6 330.816 701.888 326.272 703.808 322.176C705.92 317.568 705.664 312.576 703.296 310.016C700.352 306.816 695.488 305.344 690.88 306.368ZM697.28 311.936C702.208 314.048 701.632 318.592 695.744 324.544C689.792 330.496 684.992 331.008 681.216 326.016C680.32 324.928 679.488 322.944 679.232 321.728C678.976 319.936 679.232 319.168 680.96 317.184C683.392 314.432 685.44 313.28 690.048 312.064C694.4 310.848 694.656 310.848 697.28 311.936Z" fill="white"/>
<path d="M137.92 311.552C136.192 312.192 132.992 313.856 130.88 315.264C125.248 319.168 122.176 320.512 117.056 321.6C108.096 323.52 104.256 326.272 103.104 331.584C101.824 337.344 103.552 340.096 114.048 348.928C116.352 350.912 118.464 353.472 120 356.288C121.344 358.72 123.392 361.856 124.544 363.328C129.92 369.984 139.584 370.496 145.6 364.544C148.928 361.216 150.144 357.056 149.504 351.104C148.928 345.472 149.952 340.992 153.28 334.4C156.608 327.808 157.184 325.184 156.224 321.536C154.048 313.536 145.536 308.864 137.92 311.552Z" fill="white"/>
<path d="M712.256 320.896C704.704 323.584 701.248 327.616 701.248 333.632C701.248 339.52 704.896 345.6 710.016 348.352C713.92 350.4 720.448 350.272 725.184 348.096C728.896 346.368 732.928 342.72 734.464 339.712C735.872 337.024 736.256 332.608 735.36 329.92C734.272 326.528 729.856 322.368 726.08 321.088C722.368 319.808 715.52 319.744 712.256 320.896ZM726.464 327.424C732.352 330.368 732.352 335.552 726.4 340.608C720.192 345.92 711.36 345.472 707.84 339.712C704.832 334.784 705.664 330.56 710.144 327.936C715.328 324.928 721.088 324.736 726.464 327.424Z" fill="white"/>
<path d="M659.84 328.256C656.704 329.28 654.272 330.816 652.224 333.12C647.552 338.496 647.104 343.744 650.752 352.32L653.12 358.08V367.744C653.12 377.344 653.12 377.408 655.04 380.48C657.6 384.64 661.888 387.328 666.56 387.712C674.304 388.352 678.592 385.92 683.904 377.792C686.656 373.632 688.448 371.648 691.712 369.408C701.248 362.624 703.936 358.784 703.168 352.96C702.144 345.6 698.496 342.464 687.616 339.52C684.8 338.752 682.304 337.344 678.656 334.592C675.84 332.544 672.448 330.24 671.104 329.472C668.352 328.064 662.4 327.424 659.84 328.256ZM667.84 333.376C669.248 334.016 671.872 335.68 673.6 337.088C679.36 341.632 681.92 343.04 688.128 344.96C695.424 347.264 698.24 349.696 698.24 353.792C698.24 357.312 696.32 359.872 690.624 363.84C685.376 367.488 683.776 369.216 679.168 376.128C677.696 378.304 675.648 380.672 674.56 381.44C670.528 384.32 664.96 383.872 661.184 380.416C657.92 377.536 657.152 374.464 657.984 367.68C658.752 361.088 658.304 358.144 655.296 350.656C653.888 347.264 652.8 343.744 652.8 342.784C652.8 338.816 656.704 334.08 660.992 332.8C663.68 331.968 665.088 332.096 667.84 333.376Z" fill="white"/>
<path d="M73.0239 329.92C63.9999 332.416 60.5439 339.136 64.4479 346.304C69.0559 354.816 83.8399 358.08 90.4319 352.128C92.4799 350.272 93.6319 347.392 93.6319 343.872C93.6319 340.096 92.6719 337.28 90.3679 334.144C87.2959 329.984 79.5519 328.128 73.0239 329.92Z" fill="white"/>
<path d="M717.632 351.424C714.432 352.192 709.568 356.288 707.776 359.808C704.768 365.696 705.6 372.224 709.952 376.576C719.616 386.176 740.48 378.56 740.48 365.376C740.48 359.744 735.68 353.728 729.728 352C726.208 350.976 720.704 350.72 717.632 351.424ZM729.92 358.272C735.808 361.28 737.152 365.184 733.824 369.6C728.704 376.32 715.136 377.28 712 371.2C709.376 366.144 712.768 358.464 718.4 356.928C720.96 356.224 727.424 356.928 729.92 358.272Z" fill="white"/>
<path d="M95.552 358.336C90.88 360.576 86.72 364.544 86.08 367.296C85.504 370.112 86.784 373.504 89.152 375.296C92.736 377.92 94.976 378.432 101.248 378.112C110.784 377.728 114.56 374.72 114.56 367.616C114.56 363.712 112.512 359.488 109.824 357.76C106.496 355.776 100.544 355.968 95.552 358.336Z" fill="white"/>
<path d="M692.288 373.888C687.552 375.168 683.584 381.056 683.52 386.752C683.52 393.216 687.488 397.376 695.424 399.04C701.056 400.256 703.616 400.256 707.648 399.04C713.92 397.184 717.056 390.848 714.496 385.216C711.232 377.92 699.456 371.904 692.288 373.888ZM702.592 380.416C704.32 381.248 706.752 383.168 708.032 384.576C713.024 390.08 709.76 394.88 701.056 394.88C697.472 394.88 692.224 393.216 690.112 391.424C688.64 390.144 688.32 389.376 688.384 387.008C688.448 383.808 690.368 380.096 692.608 379.008C694.656 377.984 698.944 378.56 702.592 380.416Z" fill="white"/>
<path d="M91.8398 400.896C88.5758 402.112 85.3118 405.632 84.7358 408.576C83.9678 412.864 84.9278 415.232 88.9598 419.328C94.6558 425.024 101.888 427.776 107.328 426.304C113.664 424.576 118.144 415.424 115.776 409.152C114.624 406.08 110.72 402.624 107.2 401.536C102.336 400.064 94.9118 399.808 91.8398 400.896ZM107.2 407.104C112.576 409.6 113.088 415.04 108.48 419.648C105.792 422.336 103.232 422.4 98.0478 419.84C91.3278 416.448 87.9998 411.392 90.4318 408.128C92.7358 404.928 101.504 404.416 107.2 407.104Z" fill="white"/>
<path d="M126.08 412.864C122.432 414.336 119.488 417.088 116.096 422.208C112.576 427.392 110.912 429.056 105.088 432.896C97.0239 438.336 94.7839 445.056 98.5599 452.48C100.416 456.128 104.128 458.24 112.384 460.48C115.2 461.248 117.696 462.656 121.344 465.408C129.024 471.168 130.752 471.936 136 471.936C141.248 471.936 144.576 470.528 147.712 466.88C152.448 461.504 152.896 456.256 149.312 447.68L146.88 441.92V432.256C146.88 422.656 146.88 422.592 144.96 419.52C142.08 414.848 137.984 412.544 132.224 412.352C129.728 412.224 126.976 412.48 126.08 412.864ZM135.872 417.536C138.624 418.688 141.184 421.568 141.952 424.448C142.336 425.92 142.4 428.608 142.016 431.808C141.248 438.464 141.76 441.92 144.704 449.344C147.52 456.384 147.712 457.92 145.92 461.44C144.448 464.32 142.144 466.112 138.496 467.2C134.848 468.288 132.416 467.392 125.568 462.272C118.848 457.28 118.336 456.96 111.296 454.848C104.576 452.736 101.76 450.176 101.76 446.144C101.76 442.688 103.872 439.936 109.632 435.968C112.384 434.048 115.52 431.232 116.672 429.696C122.88 421.056 124.672 418.88 126.72 417.792C129.344 416.448 132.992 416.32 135.872 417.536Z" fill="white"/>
<path d="M71.2319 420.416C64.7039 422.656 60.2239 427.648 59.6479 433.28C58.8799 441.472 64.7679 447.424 75.2639 449.024C86.5279 450.752 96.4479 439.808 93.3759 428.992C92.3519 425.216 88.3839 421.056 84.7359 419.968C81.0239 418.88 75.1359 419.072 71.2319 420.416ZM85.2479 425.984C90.3679 428.608 89.8559 437.76 84.4159 441.664C81.4079 443.776 73.9199 443.84 70.0799 441.792C64.1919 438.656 62.8479 434.752 66.1759 430.464C70.1439 425.216 79.4879 423.04 85.2479 425.984Z" fill="white"/>
<path d="M692.992 422.4C687.744 424 685.376 427.072 685.376 432.32C685.376 439.168 689.408 443.52 695.808 443.52C705.152 443.52 715.136 435.968 713.984 429.824C712.96 424.384 708.416 421.76 700.16 421.824C697.152 421.824 693.952 422.08 692.992 422.4Z" fill="white"/>
<path d="M658.816 432.256C652.672 434.944 649.792 440.384 650.432 448.384C650.88 454.784 649.664 460.096 646.144 466.816C642.688 473.344 642.432 476.096 644.736 481.088C646.592 485.056 650.176 487.872 654.656 488.96C658.944 489.984 662.144 489.024 668.48 484.864C675.584 480.192 676.544 479.744 683.648 478.144C693.376 475.904 696.96 472.64 696.96 465.92C696.96 461.44 695.104 458.56 689.472 454.208C684.352 450.24 682.88 448.512 679.04 442.24C675.008 435.584 673.792 434.304 670.4 432.64C667.328 431.168 661.824 430.976 658.816 432.256Z" fill="white"/>
<path d="M712.32 446.208C707.328 448.768 705.408 453.248 706.624 459.328C708.032 466.56 713.28 470.656 720.96 470.656C727.104 470.72 730.496 469.568 733.952 466.304C736.448 463.936 736.832 463.168 737.088 460.352C737.408 457.664 737.152 456.576 735.744 454.016C731.456 446.272 719.872 442.432 712.32 446.208Z" fill="white"/>
<path d="M76.992 451.072C66.624 454.784 61.504 463.936 65.472 471.68C67.072 474.944 71.232 478.336 74.752 479.36C81.28 481.152 89.92 479.488 94.208 475.648C97.408 472.768 98.56 470.208 98.56 465.92C98.56 454.848 87.616 447.296 76.992 451.072ZM89.088 457.28C91.328 458.816 94.08 463.296 94.08 465.472C94.08 470.464 88.384 474.304 81.088 474.304C70.656 474.304 65.728 467.776 71.488 461.376C76.48 455.808 84.288 454.016 89.088 457.28Z" fill="white"/>
<path d="M110.08 465.856C104.896 466.944 99.2638 471.68 96.3198 477.504C94.8478 480.32 94.6558 481.472 94.8478 484.608C95.1678 489.024 97.0878 491.52 101.568 493.184C107.968 495.68 120.256 491.008 123.904 484.736C125.312 482.304 125.568 481.28 125.312 478.08C124.736 470.08 117.632 464.384 110.08 465.856ZM115.84 471.36C118.208 472.576 120.32 475.584 120.768 478.272C121.408 482.368 115.712 486.912 108.288 488.32C102.08 489.472 98.3678 486.656 99.7758 481.856C101.184 477.248 108.928 470.4 112.832 470.4C113.472 470.4 114.816 470.848 115.84 471.36Z" fill="white"/>
<path d="M707.84 477.76C701.44 479.808 696.832 487.36 698.368 493.44C700.416 501.504 714.24 506.176 722.88 501.696C730.624 497.664 731.584 489.792 725.056 483.264C720.064 478.272 713.152 476.032 707.84 477.76Z" fill="white"/>
<path d="M674.88 490.048C672.064 491.52 670.72 492.864 669.376 495.488C666.816 500.48 668.48 505.344 674.24 509.696C676.928 511.808 683.968 514.56 686.464 514.56C691.328 514.56 695.296 510.464 694.848 505.92C694.272 500.288 688.448 491.84 683.712 489.856C680.96 488.704 677.248 488.768 674.88 490.048Z" fill="white"/>
<path d="M161.6 515.136C157.312 516.224 154.048 518.72 152.128 522.56C151.616 523.584 150.528 527.36 149.824 530.88C148.352 537.536 146.816 541.184 142.976 547.2C138.688 553.984 138.688 558.336 143.104 563.136C146.112 566.528 149.312 567.36 155.776 566.464C163.072 565.44 165.696 565.568 172.544 567.36C179.84 569.28 183.104 569.344 186.624 567.744C189.76 566.336 193.728 561.856 194.56 558.784C196.224 552.768 194.624 548.416 188.544 542.72C183.168 537.6 181.056 534.208 178.816 527.04C176.512 519.744 173.504 516.352 168.384 515.264C164.736 514.496 164.352 514.496 161.6 515.136Z" fill="white"/>
<path d="M125.568 517.12C117.376 519.296 113.92 522.56 113.92 528C113.92 530.368 114.24 531.072 116.48 533.184C119.616 536.192 124.032 537.6 130.048 537.6C137.152 537.6 140.672 535.36 142.144 529.92C143.104 526.4 142.528 523.136 140.608 520.256C137.856 516.16 132.928 515.136 125.568 517.12Z" fill="white"/>
<path d="M619.84 532.416C616.128 534.144 613.376 537.216 611.84 541.184C608.768 549.44 606.848 552.128 599.744 558.016C595.52 561.536 593.984 564.736 593.92 570.112C593.92 574.784 594.88 577.408 597.76 580.736C602.24 585.792 607.04 586.88 617.216 584.96C623.68 583.808 624.512 583.744 628.736 584.64C639.36 586.88 644.992 585.408 648.576 579.648C650.112 577.152 650.496 575.872 650.496 572.608C650.56 569.024 650.24 568.064 647.168 562.496C644.096 556.8 643.776 555.712 642.88 549.12C641.6 539.392 638.72 534.656 632.512 532.032C629.504 530.816 622.912 531.008 619.84 532.416ZM632 537.152C635.2 538.944 637.248 542.592 637.76 547.2C638.656 555.456 639.616 558.912 642.624 564.864C645.952 571.392 646.272 572.928 644.864 576.192C643.136 580.352 639.552 581.504 632.512 580.16C626.112 578.944 622.144 578.944 615.936 580.224C609.856 581.504 605.632 581.184 602.944 579.264C598.72 576.256 597.12 569.472 599.616 565.312C600.32 564.224 602.624 561.856 604.8 560.064C610.176 555.584 611.52 553.856 614.08 548.032C617.664 540.032 618.56 538.624 621.184 537.152C624.448 535.232 628.608 535.232 632 537.152Z" fill="white"/>
<path d="M652.48 536.256C651.072 537.024 649.216 538.624 648.32 539.968C646.912 542.016 646.72 542.976 646.72 547.776C646.72 554.432 647.872 556.544 652.992 559.168C655.872 560.64 657.088 560.896 662.144 560.896C667.392 560.96 668.352 560.768 671.744 559.04C676.224 556.736 678.016 554.048 677.952 549.76C677.888 546.112 676.608 543.552 673.536 540.8C667.776 535.744 657.728 533.568 652.48 536.256ZM664 541.184C667.904 542.528 673.28 547.52 673.28 549.888C673.28 552.64 671.424 554.176 666.624 555.328C661.76 556.48 656.96 555.968 653.824 553.92C650.368 551.68 650.176 544.704 653.504 541.376C655.04 539.84 659.648 539.712 664 541.184Z" fill="white"/>
<path d="M112.832 544.256C109.12 545.408 106.112 547.392 103.36 550.464C100.288 553.92 99.2 556.608 99.2 560.896C99.2 563.712 99.52 564.736 100.864 566.4C107.648 574.464 123.456 571.712 127.616 561.792C128.96 558.592 128.896 553.216 127.424 550.08C124.672 544.128 119.68 542.144 112.832 544.256Z" fill="white"/>
<path d="M663.36 563.712C660.48 565.056 657.536 568.192 656.192 571.328C654.976 574.336 655.168 581.568 656.576 584.64C657.984 587.776 661.568 591.04 665.536 592.832C669.76 594.688 677.76 594.752 681.28 592.896C686.912 589.952 689.472 582.592 687.04 576.256C683.328 566.464 671.168 560.064 663.36 563.712ZM672.96 569.216C676.48 570.816 680.576 574.976 681.984 578.304C684.928 585.408 680 590.528 671.744 588.8C663.36 587.072 658.752 581.184 660.544 574.528C660.928 573.056 661.888 571.136 662.592 570.304C665.344 567.296 668.288 566.976 672.96 569.216Z" fill="white"/>
<path d="M128.832 572.8C127.744 573.184 125.248 574.912 123.328 576.64C112.576 586.496 115.648 599.68 128.64 599.616C133.504 599.616 136.256 598.784 140.224 596.032C149.504 589.632 149.312 578.816 139.904 573.952C137.024 572.48 131.776 571.904 128.832 572.8Z" fill="white"/>
<path d="M160.768 577.6C157.568 580.416 154.496 586.368 153.856 591.104C152.704 600.64 159.616 605.184 168 600.384C174.464 596.672 179.008 589.824 178.368 584.64C177.792 579.328 172.928 575.36 167.04 575.36C163.84 575.36 163.136 575.616 160.768 577.6Z" fill="white"/>
<path d="M616.32 587.456C609.024 589.696 604.928 595.84 606.592 602.048C607.488 605.312 610.752 610.56 613.824 613.632C620.288 620.096 629.312 619.712 632.64 612.736C634.176 609.408 633.728 600.64 631.744 596.16C628.544 588.992 622.528 585.6 616.32 587.456ZM624.128 593.728C626.496 596.288 627.712 599.04 628.352 603.2C629.056 607.424 628.416 611.136 626.816 612.288C623.616 614.656 618.112 611.84 614.016 605.888C610.176 600.32 610.56 595.648 614.976 593.28C618.496 591.424 622.144 591.616 624.128 593.728Z" fill="white"/>
<path d="M647.04 588.736C640.32 590.784 635.52 596.736 635.52 603.008C635.52 606.656 637.504 610.496 641.344 614.08C652.736 624.704 668.8 620.544 668.8 606.912C668.8 595.52 657.024 585.728 647.04 588.736ZM656.64 595.52C662.528 599.616 665.536 608.384 662.336 612.096C659.392 615.488 653.76 615.488 647.936 612.16C640.576 607.872 638.528 600.832 643.328 596.352C647.04 592.896 652.352 592.576 656.64 595.52Z" fill="white"/>
<path d="M223.616 594.816C220.8 596.096 217.088 599.552 215.744 602.176C213.824 605.888 213.632 609.6 214.976 617.024C215.872 622.08 216 624.576 215.552 626.944C215.232 628.672 214.848 632.576 214.592 635.648C214.272 640.896 214.336 641.408 215.936 644.096C218.368 648.256 222.4 650.432 227.456 650.496C230.976 650.56 231.936 650.24 237.504 647.168C243.2 644.096 244.288 643.776 250.88 642.88C260.608 641.6 265.344 638.72 267.968 632.512C269.184 629.504 268.992 622.912 267.584 619.84C266.112 616.64 262.016 612.864 258.816 611.84C251.648 609.536 247.424 606.464 241.664 599.36C240.256 597.696 237.952 595.776 236.544 595.136C233.408 593.728 226.56 593.536 223.616 594.816ZM234.688 599.616C235.776 600.32 238.144 602.624 239.936 604.8C244.416 610.176 246.144 611.52 251.968 614.08C259.968 617.664 261.376 618.56 262.848 621.184C264.768 624.448 264.704 628.16 262.848 631.744C260.736 635.712 257.664 637.248 250.176 638.08C242.88 638.912 241.28 639.424 234.432 642.944C228.8 645.952 226.304 646.336 223.424 644.864C219.52 642.816 218.56 639.36 219.84 632.512C221.056 626.112 221.056 622.144 219.776 615.936C217.984 607.232 219.392 602.432 224.512 599.68C227.584 598.08 232.064 598.08 234.688 599.616Z" fill="white"/>
<path d="M548.672 606.336C547.136 607.232 544.32 609.664 542.336 611.776C537.92 616.512 533.888 619.264 529.28 620.544C523.904 622.016 522.112 622.784 519.808 624.448C513.664 628.992 513.28 640.192 519.168 645.504C521.664 647.808 524.48 648.896 531.328 650.304C538.048 651.648 539.968 652.416 544.32 655.36C553.472 661.568 559.232 661.76 564.096 656C566.784 652.736 567.04 650.816 566.144 640C565.632 634.432 565.76 633.344 567.36 627.584C569.472 619.84 569.344 615.936 566.848 611.648C564.48 607.616 560.576 605.376 555.328 604.992C551.936 604.8 550.976 604.992 548.672 606.336Z" fill="white"/>
<path d="M198.08 606.656C192.704 608 185.344 613.76 182.912 618.496C181.312 621.632 181.568 627.072 183.424 629.568C185.856 632.832 188.48 633.728 194.88 633.472C208.896 632.832 216.32 624.256 211.584 614.08C209.856 610.304 207.04 607.68 203.648 606.72C201.024 606.016 200.832 606.016 198.08 606.656ZM204.416 612.544C208.192 615.552 209.152 620.672 206.4 623.872C203.392 627.456 194.816 629.952 190.464 628.48C186.88 627.328 185.856 624 187.776 620.224C189.888 616.256 197.184 611.264 201.024 611.2C201.984 611.2 203.456 611.776 204.416 612.544Z" fill="white"/>
<path d="M580.352 623.04C575.872 626.048 573.952 633.536 576.576 637.824C580.224 643.776 591.296 647.808 597.504 645.44C604.224 642.88 603.84 634.496 596.672 627.328C590.912 621.568 584.896 619.968 580.352 623.04Z" fill="white"/>
<path d="M191.552 636.864C188.16 638.528 183.296 643.712 181.696 647.296C179.072 653.248 179.584 660.48 182.848 664.384C188.032 670.528 198.208 670.208 205.696 663.68C212.8 657.408 213.568 647.744 207.552 640.704C203.264 635.712 196.992 634.176 191.552 636.864ZM202.88 643.072C207.616 647.808 207.616 653.696 202.816 658.432C194.752 666.56 185.216 665.024 185.408 655.68C185.536 650.176 190.016 643.136 194.56 641.344C197.952 640 200.32 640.512 202.88 643.072Z" fill="white"/>
<path d="M320.576 644.096C317.056 645.312 314.432 647.488 312.704 650.432C309.312 656.384 310.016 660.992 315.648 669.632C320.064 676.288 320.384 677.056 321.728 683.52C323.648 692.864 327.424 697.088 334.016 697.152C337.856 697.216 340.416 695.744 343.808 691.712C349.632 684.736 351.872 682.688 358.08 678.848C365.504 674.176 367.808 671.424 368.448 666.432C368.96 661.632 367.68 657.664 364.544 654.336C361.28 650.944 357.952 649.984 351.04 650.368C344.448 650.752 340.16 649.728 333.056 646.08C327.04 643.008 324.672 642.624 320.576 644.096Z" fill="white"/>
<path d="M247.04 646.848C244.544 647.872 242.368 649.984 240.832 652.992C239.296 655.872 239.104 657.088 239.104 662.144C239.104 667.392 239.296 668.416 240.96 671.744C243.328 676.288 245.888 678.016 250.368 677.952C257.6 677.824 264 669.696 264.768 659.712C265.088 656.256 264.896 654.976 263.744 652.672C261.696 648.384 258.688 646.72 252.864 646.592C250.176 646.528 247.552 646.592 247.04 646.848ZM254.656 651.264C258.048 651.968 259.84 654.208 259.84 657.792C259.84 662.528 258.112 666.688 254.656 670.272C251.84 673.152 251.392 673.408 249.472 673.024C248.32 672.832 247.04 672.256 246.592 671.808C245.248 670.464 243.648 663.04 244.096 659.968C245.056 652.928 248.512 650.048 254.656 651.264Z" fill="white"/>
<path d="M447.36 650.752L441.92 653.12H432.256C422.656 653.12 422.592 653.12 419.52 655.04C415.36 657.6 412.672 661.888 412.288 666.56C411.648 674.304 414.016 678.464 422.272 683.968C426.432 686.784 428.48 688.704 430.72 691.84C435.072 698.048 438.976 701.824 442.048 702.72C445.568 703.808 449.728 703.104 453.184 700.864C456.384 698.88 458.624 694.912 460.416 687.936C461.248 684.736 462.464 682.496 465.344 678.656C471.168 670.976 471.936 669.248 471.936 664C471.936 658.752 470.528 655.424 466.88 652.288C461.504 647.552 455.872 647.104 447.36 650.752ZM461.44 654.08C464.32 655.552 466.112 657.856 467.2 661.504C468.288 665.152 467.392 667.584 462.272 674.432C457.28 681.152 456.96 681.664 454.848 688.704C453.44 693.12 452.672 694.656 450.88 696.256C446.528 700.032 441.536 698.496 436.992 691.84C432.64 685.504 431.552 684.416 425.728 680.448C419.072 675.904 417.216 673.664 416.832 669.76C416.384 666.112 417.472 663.104 420.096 660.544C422.848 657.856 425.664 657.28 431.808 657.984C438.464 658.752 441.984 658.24 449.28 655.296C456.256 652.48 457.92 652.288 461.44 654.08Z" fill="white"/>
<path d="M580.096 654.016C575.744 656 572.224 661.696 572.224 666.88C572.16 669.952 574.72 675.072 577.664 677.888C585.216 684.992 594.368 684.992 598.336 677.824C601.6 671.936 599.744 663.36 593.856 657.28C589.44 652.8 585.088 651.712 580.096 654.016Z" fill="white"/>
<path d="M215.36 656.576C212.288 657.984 208.96 661.632 207.104 665.536C205.248 669.696 205.248 677.696 207.104 681.28C210.304 687.424 217.984 689.664 224.896 686.528C233.92 682.368 239.488 671.68 236.544 664.064C235.328 660.928 232 657.6 228.736 656.256C225.664 654.976 218.496 655.168 215.36 656.576ZM228.608 661.632C234.048 664.832 232.896 673.024 226.176 678.976C218.56 685.632 210.816 683.2 210.944 674.112C211.008 670.528 213.376 664.832 215.616 662.784C218.816 659.904 224.704 659.392 228.608 661.632Z" fill="white"/>
<path d="M521.6 658.688C517.632 660.736 516.16 663.488 516.224 668.8C516.352 674.112 518.464 679.744 521.6 683.072C523.584 685.248 524.416 685.632 527.232 685.952C530.496 686.208 530.688 686.144 532.992 683.712C536.32 680.192 537.792 675.392 537.472 668.8C537.344 664.96 536.96 663.36 535.936 661.952C534.272 659.648 529.6 657.28 526.72 657.28C525.44 657.28 523.136 657.92 521.6 658.688Z" fill="white"/>
<path d="M295.296 669.376C292.672 670.976 288.96 675.52 287.424 679.104C284.608 685.376 285.12 690.368 288.832 693.504C290.496 694.912 291.264 695.104 293.76 694.912C299.52 694.272 307.712 688.768 310.016 683.904C314.24 674.944 303.552 664.32 295.296 669.376Z" fill="white"/>
<path d="M550.08 672.448C543.168 676.096 541.696 682.112 545.728 690.304C549.952 698.88 559.808 703.36 565.824 699.328C574.08 693.888 572.032 677.44 562.496 672.64C559.424 671.04 552.896 670.976 550.08 672.448Z" fill="white"/>
<path d="M473.792 675.52C470.656 676.864 466.688 681.216 465.92 684.16C463.424 693.376 473.728 705.28 484.224 705.28C487.552 705.28 488 705.088 490.24 702.848C493.632 699.52 494.528 696.064 493.504 691.008C492.672 687.04 490.432 681.92 488.192 679.04C484.992 674.944 478.656 673.344 473.792 675.52ZM483.52 681.856C486.656 685.056 488.32 689.344 488.32 694.08C488.32 701.76 482.88 702.72 475.776 696.192C472.768 693.44 470.464 689.472 470.4 686.976C470.4 683.712 475.648 679.04 479.296 679.04C480.32 679.04 481.792 680.064 483.52 681.856Z" fill="white"/>
<path d="M407.872 684.736C404.48 686.336 402.24 689.664 401.024 695.04C399.104 703.104 400 708.608 403.776 712.384C408.32 716.992 414.08 716.416 419.584 710.784C426.112 704.064 428.416 695.232 425.024 689.728C421.824 684.544 413.44 682.112 407.872 684.736ZM419.84 691.648C422.144 694.208 422.208 695.68 420.416 700.608C418.56 705.408 413.76 710.4 410.88 710.4C408.064 710.4 405.952 708.032 405.44 704.32C404.416 697.536 406.976 690.112 410.816 688.896C413.952 687.872 417.472 688.96 419.84 691.648Z" fill="white"/>
<path d="M362.56 686.336C361.536 686.848 359.808 688.128 358.72 689.216C356.928 691.2 356.8 691.584 356.8 696.512C356.8 700.8 357.12 702.336 358.336 704.64C360.768 709.184 362.688 711.424 365.696 713.024C368.256 714.368 368.768 714.432 371.136 713.728C375.936 712.256 378.24 707.52 378.24 699.264C378.24 692.544 376.256 687.808 372.864 686.4C370.048 685.248 365.12 685.184 362.56 686.336Z" fill="white"/>
<path d="M306.496 698.176C302.08 699.584 298.944 703.552 297.216 709.888C296.064 714.24 296.064 716.416 297.28 720.512C299.136 726.784 305.024 730.624 310.272 729.088C316.16 727.296 321.728 720.512 322.88 713.6C323.712 708.544 320 701.888 314.944 699.2C312.576 697.984 308.608 697.536 306.496 698.176Z" fill="white"/>
<path d="M459.008 703.104C452.928 706.112 449.536 711.872 450.112 718.144C450.496 722.24 452.672 727.616 455.232 730.56C456.128 731.648 458.368 733.376 460.16 734.336C469.76 739.584 480 731.648 480 719.04C480 711.552 476.224 704.384 471.232 702.336C467.84 700.864 462.784 701.184 459.008 703.104ZM469.056 706.816C472.384 708.544 474.368 713.216 474.304 719.296C474.24 731.136 465.216 734.912 458.816 725.824C453.696 718.592 454.848 710.592 461.568 707.264C464.832 705.664 466.624 705.6 469.056 706.816Z" fill="white"/>
<path d="M339.712 706.816C331.072 709.12 327.104 717.632 330.112 727.488C332.288 734.4 336.192 737.664 341.824 737.152C347.392 736.576 352.192 731.84 354.24 724.864C356.864 716.032 353.92 708.48 347.072 706.624C344.128 705.792 343.488 705.792 339.712 706.816Z" fill="white"/>
<path d="M427.84 706.816C426.432 707.328 424.256 708.928 422.976 710.336C414.464 719.872 420.992 739.136 433.216 740.352C441.088 741.056 446.976 735.744 448.704 726.4C450.176 718.272 446.912 711.232 440.128 707.712C436.8 706.048 431.168 705.6 427.84 706.816ZM438.016 712.512C442.24 714.88 443.2 716.8 443.2 722.432C443.136 732.928 436.736 738.624 430.4 733.824C425.728 730.24 423.104 720.32 425.536 715.52C427.84 710.976 433.152 709.696 438.016 712.512Z" fill="white"/>
<path d="M398.286 379H382.378L362.207 351.139C360.713 351.197 359.497 351.227 358.56 351.227C358.179 351.227 357.769 351.227 357.329 351.227C356.89 351.197 356.436 351.168 355.967 351.139V368.453C355.967 372.203 356.377 374.532 357.197 375.44C358.311 376.729 359.98 377.374 362.207 377.374H364.536V379H339.004V377.374H341.245C343.765 377.374 345.566 376.554 346.65 374.913C347.266 374.005 347.573 371.852 347.573 368.453V329.957C347.573 326.207 347.163 323.878 346.343 322.97C345.2 321.681 343.501 321.036 341.245 321.036H339.004V319.41H360.713C367.041 319.41 371.699 319.879 374.688 320.816C377.705 321.725 380.254 323.424 382.334 325.914C384.443 328.375 385.498 331.319 385.498 334.747C385.498 338.409 384.297 341.588 381.895 344.283C379.521 346.979 375.83 348.883 370.82 349.996L383.125 367.091C385.938 371.017 388.354 373.624 390.376 374.913C392.397 376.202 395.034 377.022 398.286 377.374V379ZM355.967 348.37C356.523 348.37 357.007 348.385 357.417 348.414C357.827 348.414 358.164 348.414 358.428 348.414C364.111 348.414 368.389 347.184 371.26 344.723C374.16 342.262 375.61 339.127 375.61 335.318C375.61 331.598 374.438 328.58 372.095 326.266C369.78 323.922 366.704 322.75 362.866 322.75C361.167 322.75 358.867 323.028 355.967 323.585V348.37ZM424.39 345.953L446.362 367.794C449.966 371.397 453.042 373.858 455.591 375.177C458.14 376.466 460.688 377.198 463.237 377.374V379H434.893V377.374C436.592 377.374 437.808 377.096 438.54 376.539C439.302 375.953 439.683 375.309 439.683 374.605C439.683 373.902 439.536 373.272 439.243 372.716C438.979 372.159 438.071 371.119 436.519 369.596L415.952 349.249V368.453C415.952 371.471 416.143 373.463 416.523 374.43C416.816 375.162 417.432 375.792 418.369 376.319C419.629 377.022 420.962 377.374 422.368 377.374H424.39V379H398.989V377.374H401.099C403.56 377.374 405.347 376.656 406.46 375.221C407.163 374.283 407.515 372.027 407.515 368.453V329.957C407.515 326.939 407.324 324.933 406.943 323.937C406.65 323.233 406.05 322.618 405.142 322.091C403.853 321.388 402.505 321.036 401.099 321.036H398.989V319.41H424.39V321.036H422.368C420.991 321.036 419.658 321.373 418.369 322.047C417.461 322.516 416.831 323.219 416.479 324.156C416.128 325.094 415.952 327.027 415.952 329.957V348.194C416.538 347.638 418.545 345.777 421.973 342.613C430.674 334.645 435.933 329.327 437.749 326.661C438.54 325.489 438.936 324.464 438.936 323.585C438.936 322.911 438.628 322.325 438.013 321.827C437.397 321.3 436.357 321.036 434.893 321.036H433.53V319.41H455.415V321.036C454.126 321.065 452.954 321.241 451.899 321.563C450.845 321.886 449.556 322.516 448.032 323.453C446.509 324.361 444.634 325.841 442.407 327.892C441.763 328.478 438.789 331.48 433.486 336.9L424.39 345.953ZM233.623 462.049H210.552L206.509 471.453C205.513 473.768 205.015 475.496 205.015 476.639C205.015 477.547 205.439 478.353 206.289 479.056C207.168 479.729 209.043 480.169 211.914 480.374V482H193.149V480.374C195.64 479.935 197.251 479.363 197.983 478.66C199.478 477.254 201.133 474.397 202.949 470.091L223.911 421.048H225.449L246.191 470.618C247.861 474.603 249.37 477.195 250.718 478.396C252.095 479.568 253.999 480.228 256.431 480.374V482H232.92V480.374C235.293 480.257 236.89 479.861 237.71 479.188C238.56 478.514 238.984 477.693 238.984 476.727C238.984 475.438 238.398 473.401 237.227 470.618L233.623 462.049ZM232.393 458.797L222.285 434.715L211.914 458.797H232.393ZM288.73 477.474C286.768 479.524 284.849 481.004 282.974 481.912C281.099 482.791 279.077 483.23 276.909 483.23C272.515 483.23 268.677 481.399 265.396 477.737C262.114 474.046 260.474 469.314 260.474 463.543C260.474 457.771 262.29 452.498 265.923 447.723C269.556 442.918 274.229 440.516 279.941 440.516C283.486 440.516 286.416 441.644 288.73 443.899V436.473C288.73 431.873 288.613 429.046 288.379 427.991C288.174 426.937 287.837 426.219 287.368 425.838C286.899 425.457 286.313 425.267 285.61 425.267C284.849 425.267 283.838 425.501 282.578 425.97L282.007 424.432L294.004 419.51H295.981V466.048C295.981 470.765 296.084 473.65 296.289 474.705C296.523 475.73 296.875 476.448 297.344 476.858C297.842 477.269 298.413 477.474 299.058 477.474C299.849 477.474 300.903 477.225 302.222 476.727L302.705 478.265L290.752 483.23H288.73V477.474ZM288.73 474.397V453.655C288.555 451.663 288.027 449.847 287.148 448.206C286.27 446.565 285.098 445.335 283.633 444.515C282.197 443.665 280.791 443.24 279.414 443.24C276.836 443.24 274.536 444.397 272.515 446.712C269.849 449.759 268.516 454.212 268.516 460.071C268.516 465.989 269.805 470.53 272.383 473.694C274.961 476.829 277.832 478.396 280.996 478.396C283.662 478.396 286.24 477.063 288.73 474.397ZM303.232 441.746H322.173V443.372H320.942C319.8 443.372 318.921 443.65 318.306 444.207C317.72 444.764 317.427 445.511 317.427 446.448C317.427 447.474 317.734 448.689 318.35 450.096L327.71 472.332L337.114 449.261C337.788 447.62 338.125 446.375 338.125 445.525C338.125 445.115 338.008 444.778 337.773 444.515C337.451 444.075 337.041 443.782 336.543 443.636C336.045 443.46 335.034 443.372 333.511 443.372V441.746H346.65V443.372C345.127 443.489 344.072 443.797 343.486 444.295C342.461 445.174 341.538 446.639 340.718 448.689L326.436 483.23H324.634L310.264 449.261C309.619 447.679 309.004 446.551 308.418 445.877C307.832 445.174 307.085 444.588 306.177 444.119C305.679 443.855 304.697 443.606 303.232 443.372V441.746ZM357.065 456.907C357.036 462.884 358.486 467.571 361.416 470.97C364.346 474.368 367.788 476.067 371.743 476.067C374.38 476.067 376.665 475.35 378.599 473.914C380.562 472.449 382.202 469.959 383.521 466.443L384.883 467.322C384.268 471.336 382.48 474.998 379.521 478.309C376.562 481.59 372.856 483.23 368.403 483.23C363.569 483.23 359.424 481.355 355.967 477.605C352.539 473.826 350.825 468.758 350.825 462.4C350.825 455.516 352.583 450.154 356.099 446.316C359.644 442.449 364.082 440.516 369.414 440.516C373.926 440.516 377.632 442.01 380.532 444.998C383.433 447.957 384.883 451.927 384.883 456.907H357.065ZM357.065 454.358H375.698C375.552 451.78 375.244 449.964 374.775 448.909C374.043 447.269 372.944 445.979 371.479 445.042C370.044 444.104 368.535 443.636 366.953 443.636C364.521 443.636 362.339 444.588 360.405 446.492C358.501 448.367 357.388 450.989 357.065 454.358ZM402.021 449.085C406.738 443.401 411.235 440.56 415.513 440.56C417.71 440.56 419.6 441.116 421.182 442.229C422.764 443.313 424.023 445.115 424.961 447.635C425.605 449.393 425.928 452.088 425.928 455.721V472.903C425.928 475.452 426.133 477.181 426.543 478.089C426.865 478.821 427.378 479.393 428.081 479.803C428.813 480.213 430.146 480.418 432.08 480.418V482H412.173V480.418H413.008C414.883 480.418 416.187 480.14 416.919 479.583C417.681 478.997 418.208 478.147 418.501 477.034C418.618 476.595 418.677 475.218 418.677 472.903V456.424C418.677 452.762 418.193 450.11 417.227 448.47C416.289 446.8 414.692 445.965 412.437 445.965C408.95 445.965 405.479 447.869 402.021 451.678V472.903C402.021 475.628 402.183 477.312 402.505 477.957C402.915 478.807 403.472 479.437 404.175 479.847C404.907 480.228 406.372 480.418 408.569 480.418V482H388.662V480.418H389.541C391.592 480.418 392.969 479.905 393.672 478.88C394.404 477.825 394.771 475.833 394.771 472.903V457.962C394.771 453.128 394.653 450.184 394.419 449.129C394.214 448.074 393.877 447.356 393.408 446.976C392.969 446.595 392.368 446.404 391.606 446.404C390.786 446.404 389.805 446.624 388.662 447.063L388.003 445.481L400.132 440.56H402.021V449.085ZM446.978 428.519V441.746H456.382V444.822H446.978V470.926C446.978 473.533 447.344 475.291 448.076 476.199C448.838 477.107 449.805 477.562 450.977 477.562C451.943 477.562 452.881 477.269 453.789 476.683C454.697 476.067 455.4 475.174 455.898 474.002H457.612C456.587 476.873 455.137 479.041 453.262 480.506C451.387 481.941 449.453 482.659 447.461 482.659C446.113 482.659 444.795 482.293 443.506 481.561C442.217 480.799 441.265 479.729 440.649 478.353C440.034 476.946 439.727 474.793 439.727 471.893V444.822H433.354V443.372C434.966 442.728 436.606 441.644 438.276 440.12C439.976 438.567 441.484 436.736 442.803 434.627C443.477 433.514 444.414 431.478 445.615 428.519H446.978ZM495.625 441.746V466.136C495.625 470.794 495.728 473.65 495.933 474.705C496.167 475.73 496.519 476.448 496.987 476.858C497.485 477.269 498.057 477.474 498.701 477.474C499.609 477.474 500.635 477.225 501.777 476.727L502.393 478.265L490.352 483.23H488.374V474.705C484.917 478.455 482.28 480.813 480.464 481.78C478.647 482.747 476.729 483.23 474.707 483.23C472.451 483.23 470.488 482.586 468.818 481.297C467.178 479.979 466.035 478.294 465.391 476.243C464.746 474.192 464.424 471.292 464.424 467.542V449.568C464.424 447.664 464.219 446.346 463.809 445.613C463.398 444.881 462.783 444.324 461.963 443.943C461.172 443.533 459.722 443.343 457.612 443.372V441.746H471.719V468.685C471.719 472.435 472.363 474.896 473.652 476.067C474.971 477.239 476.553 477.825 478.398 477.825C479.658 477.825 481.079 477.43 482.661 476.639C484.272 475.848 486.177 474.339 488.374 472.112V449.305C488.374 447.02 487.949 445.481 487.1 444.69C486.279 443.87 484.551 443.431 481.914 443.372V441.746H495.625ZM517.114 440.56V449.612C520.483 443.577 523.94 440.56 527.485 440.56C529.097 440.56 530.43 441.058 531.484 442.054C532.539 443.021 533.066 444.148 533.066 445.438C533.066 446.58 532.686 447.547 531.924 448.338C531.162 449.129 530.254 449.524 529.199 449.524C528.174 449.524 527.017 449.026 525.728 448.03C524.468 447.005 523.53 446.492 522.915 446.492C522.388 446.492 521.816 446.785 521.201 447.371C519.883 448.572 518.521 450.55 517.114 453.304V472.596C517.114 474.822 517.393 476.507 517.949 477.649C518.33 478.44 519.004 479.1 519.971 479.627C520.938 480.154 522.329 480.418 524.146 480.418V482H503.535V480.418C505.586 480.418 507.109 480.096 508.105 479.451C508.838 478.982 509.351 478.235 509.644 477.21C509.79 476.712 509.863 475.291 509.863 472.947V457.347C509.863 452.659 509.761 449.876 509.556 448.997C509.38 448.089 509.028 447.43 508.501 447.02C508.003 446.609 507.373 446.404 506.611 446.404C505.703 446.404 504.678 446.624 503.535 447.063L503.096 445.481L515.269 440.56H517.114ZM542.075 456.907C542.046 462.884 543.496 467.571 546.426 470.97C549.355 474.368 552.798 476.067 556.753 476.067C559.39 476.067 561.675 475.35 563.608 473.914C565.571 472.449 567.212 469.959 568.53 466.443L569.893 467.322C569.277 471.336 567.49 474.998 564.531 478.309C561.572 481.59 557.866 483.23 553.413 483.23C548.579 483.23 544.434 481.355 540.977 477.605C537.549 473.826 535.835 468.758 535.835 462.4C535.835 455.516 537.593 450.154 541.108 446.316C544.653 442.449 549.092 440.516 554.424 440.516C558.936 440.516 562.642 442.01 565.542 444.998C568.442 447.957 569.893 451.927 569.893 456.907H542.075ZM542.075 454.358H560.708C560.562 451.78 560.254 449.964 559.785 448.909C559.053 447.269 557.954 445.979 556.489 445.042C555.054 444.104 553.545 443.636 551.963 443.636C549.531 443.636 547.349 444.588 545.415 446.492C543.511 448.367 542.397 450.989 542.075 454.358ZM601.313 440.56V454.271H599.863C598.75 449.964 597.314 447.034 595.557 445.481C593.828 443.929 591.616 443.152 588.921 443.152C586.87 443.152 585.215 443.694 583.955 444.778C582.695 445.862 582.065 447.063 582.065 448.382C582.065 450.022 582.534 451.429 583.472 452.601C584.38 453.802 586.226 455.076 589.009 456.424L595.425 459.544C601.372 462.444 604.346 466.268 604.346 471.014C604.346 474.676 602.954 477.635 600.171 479.891C597.417 482.117 594.326 483.23 590.898 483.23C588.438 483.23 585.625 482.791 582.461 481.912C581.494 481.619 580.703 481.473 580.088 481.473C579.414 481.473 578.887 481.854 578.506 482.615H577.056V468.245H578.506C579.326 472.347 580.894 475.438 583.208 477.518C585.522 479.598 588.115 480.638 590.986 480.638C593.008 480.638 594.648 480.052 595.908 478.88C597.197 477.679 597.842 476.243 597.842 474.573C597.842 472.552 597.124 470.853 595.688 469.476C594.282 468.099 591.455 466.355 587.207 464.246C582.959 462.137 580.176 460.232 578.857 458.533C577.539 456.863 576.88 454.754 576.88 452.205C576.88 448.895 578.008 446.126 580.264 443.899C582.549 441.673 585.493 440.56 589.097 440.56C590.679 440.56 592.598 440.896 594.854 441.57C596.348 442.01 597.344 442.229 597.842 442.229C598.311 442.229 598.677 442.127 598.94 441.922C599.204 441.717 599.512 441.263 599.863 440.56H601.313Z" fill="white"/>
</g>
<defs>
<clipPath id="clip0_16_285">
<rect width="800" height="800" fill="white"/>
</clipPath>
</defs>
</svg>
